<svg xmlns="http://www.w3.org/2000/svg" viewBox="0 0 64 64">
  <rect width="64" height="64" rx="12" fill="#8c1d40"/>
  <path
    d="M31 19.4c-2.2-2.2-5-3.4-8.2-3.4C15.6 16 10 21.8 10 32s5.6 16 12.8 16c3.6 0 6.7-1.3 9-3.8l-4.4-4.5c-1.2 1.3-2.7 2-4.5 2-3.7 0-6.2-3.6-6.2-9.7s2.5-9.7 6.2-9.7c1.6 0 3 .6 4.2 1.8L31 19.4Z"
    fill="#fff"
  />
  <path
    d="M52.7 29.4H40.8v5.8h5.7c-.6 4-2.7 6.5-6.2 6.5-4 0-6.7-3.7-6.7-9.7 0-6.1 2.8-9.7 7-9.7 2.5 0 4.2 1.1 5.6 3.1l5.2-3.8C48.8 17.8 45.3 16 40.5 16 32.4 16 27 22.4 27 32s5.1 16 13.2 16c8.2 0 12.6-5.7 12.6-15.1 0-1.2 0-2.3-.1-3.5Z"
    fill="#fff"
  />
</svg>
